<?xml version="1.0" encoding="UTF-8" standalone="no"?>
<svg
   xmlns:dc="http://purl.org/dc/elements/1.1/"
   xmlns:cc="http://creativecommons.org/ns#"
   xmlns:rdf="http://www.w3.org/1999/02/22-rdf-syntax-ns#"
   xmlns:svg="http://www.w3.org/2000/svg"
   xmlns="http://www.w3.org/2000/svg"
   xmlns:sodipodi="http://sodipodi.sourceforge.net/DTD/sodipodi-0.dtd"
   xmlns:inkscape="http://www.inkscape.org/namespaces/inkscape"
   id="a6835eff-9637-4cbf-a41d-043a371e68bf"
   data-name="Layer 1"
   width="763.89543"
   height="628.23639"
   viewBox="0 0 763.89543 628.23639"
   version="1.1"
   sodipodi:docname="parque.svg"
   inkscape:version="0.92.4 (5da689c313, 2019-01-14)">
  <metadata
     id="metadata254">
    <rdf:RDF>
      <cc:Work
         rdf:about="">
        <dc:format>image/svg+xml</dc:format>
        <dc:type
           rdf:resource="http://purl.org/dc/dcmitype/StillImage" />
        <dc:title></dc:title>
      </cc:Work>
    </rdf:RDF>
  </metadata>
  <defs
     id="defs252" />
  <sodipodi:namedview
     pagecolor="#ffffff"
     bordercolor="#666666"
     borderopacity="1"
     objecttolerance="10"
     gridtolerance="10"
     guidetolerance="10"
     inkscape:pageopacity="0"
     inkscape:pageshadow="2"
     inkscape:window-width="1366"
     inkscape:window-height="715"
     id="namedview250"
     showgrid="false"
     inkscape:zoom="0.82134688"
     inkscape:cx="248.61388"
     inkscape:cy="314.11819"
     inkscape:window-x="-8"
     inkscape:window-y="-8"
     inkscape:window-maximized="1"
     inkscape:current-layer="a6835eff-9637-4cbf-a41d-043a371e68bf"
     showborder="false" />
  <path
     d="M523.30257,461.65594a.57826.57826,0,0,1-.41007-.16977l-27.91244-27.89342a.57968.57968,0,0,1,.82014-.81944l27.91243,27.89342a.57949.57949,0,0,1-.41006.98921Z"
     transform="translate(-218.05228 -135.88181)"
     fill="#3f3d56"
     id="path137" />
  <path
     d="M420.22894,414.45826a.717.717,0,0,1-.50849-.21052l-34.61187-34.58829a.71881.71881,0,0,1,1.017-1.01612l34.61187,34.5883a.71858.71858,0,0,1-.50849,1.22663Z"
     transform="translate(-218.05228 -135.88181)"
     fill="#3f3d56"
     id="path145" />
  <path
     d="M420.22894,474.33753a.71859.71859,0,0,1-.50849-1.22664L477.68431,415.186a.71881.71881,0,1,1,1.017,1.01612L420.73743,474.127A.71718.71718,0,0,1,420.22894,474.33753Z"
     transform="translate(-218.05228 -135.88181)"
     fill="#3f3d56"
     id="path147" />
  <g
     id="tree"
     inkscape:label="#g259">
    <title
       id="title263">trees</title>
  </g>
  <g
     id="arbol_tres"
     inkscape:label="#g111">
    <g
       id="g125">
      <path
         d="m 305.25029,522.41797 a 0.57968,0.57968 0 0 1 -0.57989,-0.5795 V 278.8667 a 0.57989,0.57989 0 0 1 1.15977,0 v 242.97177 a 0.57967,0.57967 0 0 1 -0.57988,0.5795 z"
         id="path135"
         inkscape:connector-curvature="0"
         style="fill:#3f3d56" />
      <path
         style="fill:#f2f2f2"
         id="path133"
         d="m 234.72845,350.96234 c 0,-38.92181 31.57371,-131.28134 70.52186,-131.28134 38.94815,0 70.52186,92.35953 70.52186,131.28134 a 70.52188,70.52188 0 0 1 -141.04372,0 z"
         inkscape:connector-curvature="0" />
    </g>
  </g>
  <g
     id="arbol_dos"
     inkscape:label="#g107">
    <g
       id="g121">
      <path
         d="m 202.17666,522.41797 a 0.7188,0.7188 0 0 1 -0.71906,-0.71858 V 220.41048 a 0.71907,0.71907 0 0 1 1.43813,0 v 301.28891 a 0.71881,0.71881 0 0 1 -0.71907,0.71858 z"
         id="path143"
         inkscape:connector-curvature="0"
         style="fill:#3f3d56" />
      <path
         style="fill:#e6e6e6"
         id="path141"
         d="m 114.72845,309.81024 c 0,-48.26367 39.15191,-162.791 87.44824,-162.791 48.29633,0 87.44825,114.52731 87.44825,162.791 a 87.44827,87.44827 0 0 1 -174.89649,0 z"
         inkscape:connector-curvature="0" />
    </g>
  </g>
  <g
     id="arbol_uno"
     transform="translate(7.3050743,-1.2175124)"
     inkscape:label="#g103">
    <g
       id="g117">
      <path
         style="fill:#6371ff"
         id="path149"
         d="M 0,226.54561 C 0,159.3802 54.44833,0 121.61374,0 188.77915,0 243.22748,159.38019 243.22748,226.54561 A 121.61374,121.61374 0 0 1 0,226.54561 Z"
         inkscape:connector-curvature="0" />
      <path
         d="m 121.61372,522.41797 a 1,1 0 0 1 -1,-1 V 102.13379 a 1,1 0 1 1 2,0 v 419.28418 a 1,1 0 0 1 -1,1 z"
         id="path151"
         inkscape:connector-curvature="0"
         style="fill:#3f3d56" />
      <path
         d="m 121.61372,183.07959 a 0.99683,0.99683 0 0 1 -0.70715,-0.293 L 72.77205,134.65231 a 1,1 0 0 1 1.4143,-1.41406 l 48.13452,48.13427 a 1,1 0 0 1 -0.70715,1.707 z"
         id="path153"
         inkscape:connector-curvature="0"
         style="fill:#3f3d56" />
      <path
         d="m 121.61372,266.40966 a 1,1 0 0 1 -0.70715,-1.707 l 80.61,-80.61035 a 1,1 0 1 1 1.41431,1.41406 l -80.61,80.61036 a 0.997,0.997 0 0 1 -0.70716,0.29293 z"
         id="path155"
         inkscape:connector-curvature="0"
         style="fill:#3f3d56" />
    </g>
  </g>
  <g
     id="g312">
    <path
       id="path157"
       fill="#3f3d56"
       transform="translate(-218.05228 -135.88181)"
       d="M980.94772,659.04355h-743a1,1,0,0,1,0-2h743a1,1,0,0,1,0,2Z" />
  </g>
  <g
     id="personaEnSilla">
    <path
       id="path159"
       fill="#3f3d56"
       transform="translate(-218.05228 -135.88181)"
       d="M921.9886,579.87648a2.61659,2.61659,0,1,0,0-5.23318H897.131V564.17693H921.9886a2.61659,2.61659,0,1,0,0-5.23318h-211.944a2.61659,2.61659,0,0,0,0,5.23318h24.85763V574.6433H710.04462a2.61659,2.61659,0,0,0,0,5.23318h24.85763v10.46637H710.04462a2.61659,2.61659,0,0,0,0,5.23319h24.85763v10.46637h-22.241a5.23319,5.23319,0,0,0,0,10.46637h21.17294a3.90011,3.90011,0,0,0-.2402,1.30829v36.6323a3.92489,3.92489,0,0,0,7.84978,0v-36.6323a3.9001,3.9001,0,0,0-.24019-1.30829H890.82969a3.90011,3.90011,0,0,0-.2402,1.30829v36.6323a3.92489,3.92489,0,0,0,7.84978,0v-36.6323a3.9001,3.9001,0,0,0-.24019-1.30829H919.372a5.23319,5.23319,0,1,0,0-10.46637H897.131V595.576H921.9886a2.6166,2.6166,0,1,0,0-5.23319H897.131V579.87648ZM740.13543,564.17693H891.89779V574.6433H740.13543Zm151.76236,41.86548H740.13543V595.576H891.89779Zm0-15.69956H740.13543V579.87648H891.89779Z" />
    <circle
       id="circle211"
       fill="#2f2e41"
       r="14.22415"
       cy="395.5706"
       cx="608.64341" />
    <polygon
       id="polygon213"
       fill="#a0616a"
       points="573.245 517.272 567.017 517.271 564.054 493.249 573.246 493.249 573.245 517.272" />
    <path
       id="path215"
       fill="#2f2e41"
       d="M562.56864,515.49179h12.0112a0,0,0,0,1,0,0v7.56261a0,0,0,0,1,0,0H555.006a0,0,0,0,1,0,0v0A7.56261,7.56261,0,0,1,562.56864,515.49179Z" />
    <polygon
       id="polygon217"
       fill="#a0616a"
       points="563.523 513.796 557.581 511.931 561.946 488.123 570.716 490.875 563.523 513.796" />
    <path
       id="path219"
       fill="#2f2e41"
       transform="translate(11.74615 -337.52782) rotate(17.42262)"
       d="M770.68739,645.27531H782.6986a0,0,0,0,1,0,0v7.56261a0,0,0,0,1,0,0H763.12478a0,0,0,0,1,0,0v0A7.56261,7.56261,0,0,1,770.68739,645.27531Z" />
    <path
       id="path221"
       fill="#2f2e41"
       transform="translate(-218.05228 -135.88181)"
       d="M783.6018,640.09265a2.26665,2.26665,0,0,1-.7986-.14536l-4.58185-1.718a2.294,2.294,0,0,1-1.42951-2.63329c1.15356-5.18672,5.085-22.84537,7.23772-32.31689,2.55317-11.23466,39.79856-13.32225,41.38272-13.40559l.13023-.00695,4.18981,5.2651c1.514,4.86624,1.03411,8.66189-1.42629,11.28179-7.1793,7.6439-28.61462,2.90069-31.17065,2.30041l-11.39316,29.90684A2.29261,2.29261,0,0,1,783.6018,640.09265Z" />
    <path
       id="path223"
       fill="#2f2e41"
       transform="translate(-218.05228 -135.88181)"
       d="M790.20587,643.64869a2.26688,2.26688,0,0,1-.7986-.14536l-4.58184-1.718a2.294,2.294,0,0,1-1.42951-2.6333c1.15355-5.18671,5.085-22.84536,7.23771-32.31688,2.55317-11.23466,39.79856-13.32225,41.38273-13.40559l.13022-.00695,4.18981,5.2651c1.514,4.86624,1.03411,8.66189-1.42629,11.28179-7.1793,7.6434-28.6145,2.90069-31.17065,2.30041l-11.39316,29.90684A2.29261,2.29261,0,0,1,790.20587,643.64869Z" />
    <path
       id="path225"
       fill="#a0616a"
       transform="translate(-218.05228 -135.88181)"
       d="M776.94959,570.48574a5.346,5.346,0,0,1,.44952.712l25.055,2.63971,3.60663-4.94492,8.17417,4.46765L807.151,585.3599l-30.72793-7.83473a5.33192,5.33192,0,1,1,.52651-7.03943Z" />
    <path
       id="path227"
       fill="#ccc"
       transform="translate(-218.05228 -135.88181)"
       d="M835.17365,600.70288a2.28629,2.28629,0,0,1-1.04118-.2545c-5.01011-2.54747-14.7659-6.95928-23.81251-7.88252a2.23129,2.23129,0,0,1-1.57251-.889,2.29546,2.29546,0,0,1-.42355-1.78348c.81633-4.519,2.689-16.026,2.44776-25.24846a12.495,12.495,0,0,1,9.43977-12.42977h0a40.572,40.572,0,0,1,5.03578-.99269,12.59622,12.59622,0,0,1,14.00029,14.61111c-1.61332,9.55735-3.23966,22.90589-1.82615,32.22412a2.28952,2.28952,0,0,1-.92386,2.20913A2.24987,2.24987,0,0,1,835.17365,600.70288Z" />
    <path
       id="path229"
       fill="#ccc"
       transform="translate(-218.05228 -135.88181)"
       d="M811.23538,576.394a2.28406,2.28406,0,0,1-.90761-.18951l-6.5268-2.82528a2.28891,2.28891,0,0,1-1.18977-3.00587l5.04533-11.65485a5.84192,5.84192,0,1,1,10.72256,4.641l-5.04521,11.65486a2.29144,2.29144,0,0,1-2.0985,1.37965Z" />
    <circle
       id="circle231"
       fill="#a0616a"
       r="12.47714"
       cy="398.89863"
       cx="608.1234" />
    <path
       id="path233"
       fill="#2f2e41"
       transform="translate(-218.05228 -135.88181)"
       d="M813.474,528.6503a45.00451,45.00451,0,0,0,19.46991,6.41531l-2.0523-2.45906a15.08155,15.08155,0,0,0,4.65879.92511,5.10215,5.10215,0,0,0,4.15874-1.94653,4.74575,4.74575,0,0,0,.31766-4.384,8.98863,8.98863,0,0,0-2.82774-3.5358,16.83505,16.83505,0,0,0-15.66916-2.80036,10.06156,10.06156,0,0,0-4.67994,3.002c-1.18283,1.45918-3.46,2.75926-2.85437,4.53733Z" />
    <path
       id="path235"
       fill="#2f2e41"
       transform="translate(-218.05228 -135.88181)"
       d="M828.27364,518.58119a38.34676,38.34676,0,0,0-13.95134-9.02177,19.62911,19.62911,0,0,0-10.5691-1.3118c-3.52582.70953-6.86016,3.14865-7.84381,6.608-.80434,2.82876.0262,5.87447,1.27444,8.53731s2.91472,5.13212,3.92415,7.89434a18.01791,18.01791,0,0,1-18.13023,24.16189c3.46428.46451,6.65749,2.0925,10.04366,2.959s7.38274.80779,9.89911-1.61809c2.66242-2.56667,2.71572-6.7398,2.587-10.4357l-.57406-16.48222c-.09758-2.80187-.18092-5.69354.82952-8.30869s3.41185-4.90514,6.21531-4.88135c2.12475.018,4.00534,1.3052,5.7093,2.5746s3.50751,2.62372,5.62393,2.81253,4.53289-1.37743,4.37452-3.49635" />
    <path
       id="path237"
       fill="#a0616a"
       transform="translate(-218.05228 -135.88181)"
       d="M805.19861,597.4978a5.5903,5.5903,0,1,1,2.15493-10.75121h.00012a5.36793,5.36793,0,0,1,.66626.33759l22.72854-10.20426.63848-6.16428,9.79733-.26218-.06486,10.26255a5.52712,5.52712,0,0,1-3.99348,5.25418L810.54606,593.536a5.20848,5.20848,0,0,1-.18244.51768,5.611,5.611,0,0,1-5.165,3.44417Z" />
    <path
       id="path239"
       fill="#ccc"
       transform="translate(-218.05228 -135.88181)"
       d="M840.35448,575.48422a2.28415,2.28415,0,0,1-.895.242l-7.09865.43646a2.28892,2.28892,0,0,1-2.42192-2.14128l-.77917-12.67612a5.84193,5.84193,0,1,1,11.6618-.71749l.77927,12.67606a2.29145,2.29145,0,0,1-1.24628,2.18035Z" />
    <rect
       id="rect241"
       fill="#3f3d56"
       transform="translate(1391.66826 1058.1211) rotate(180)"
       rx="1.77802"
       height="3.55604"
       width="43.68847"
       y="595.22343"
       x="783.01603" />
    <path
       id="path243"
       fill="#3f3d56"
       transform="translate(-218.05228 -135.88181)"
       d="M767.26787,595.47744V570.58517a3.30578,3.30578,0,0,1,3.302-3.302h45.21249a3.30578,3.30578,0,0,1,3.302,3.302v24.89227a3.30577,3.30577,0,0,1-3.302,3.302H770.5699A3.30577,3.30577,0,0,1,767.26787,595.47744Z" />
    <circle
       id="circle245"
       fill="#fff"
       r="3.04803"
       cy="447.1495"
       cx="575.12386" />
  </g>
</svg>
